<?xml version="1.0" encoding="utf-8"?>
<!-- Generator: Adobe Illustrator 15.0.0, SVG Export Plug-In . SVG Version: 6.00 Build 0)  -->
<!DOCTYPE svg PUBLIC "-//W3C//DTD SVG 1.1//EN" "http://www.w3.org/Graphics/SVG/1.1/DTD/svg11.dtd">
<svg version="1.1" id="Layer_1" xmlns="http://www.w3.org/2000/svg" xmlns:xlink="http://www.w3.org/1999/xlink" x="0px" y="0px"
	 width="91.122px" height="89.953px" viewBox="0 0 91.122 89.953" enable-background="new 0 0 91.122 89.953" xml:space="preserve">
<g>
	<path fill="#EE3664" d="M70.91,1.474c-0.217,0.289-1.265,0.866-2.31,1.335c-1.697,0.794-2.383,0.867-7.869,0.902
		c-3.32,0.037-6.208,0.18-6.425,0.289c-0.505,0.325-0.54,17.179,0,20.428c1.011,6.532,5.63,12.198,12.562,15.411
		c3.86,1.805,5.7,1.913,9.131,0.469c3.572-1.479,7.47-4.222,9.348-6.604c2.056-2.527,3.825-6.424,4.295-9.275
		C90.146,21.179,90.109,4.325,89.603,4c-0.216-0.109-3.104-0.252-6.424-0.289c-5.484-0.036-6.17-0.108-7.866-0.902
		c-1.048-0.469-2.094-1.046-2.311-1.335c-0.218-0.289-0.686-0.505-1.048-0.505C71.595,0.968,71.125,1.185,70.91,1.474z M70.872,6.31
		c0,2.346-0.07,2.527-0.973,2.996c-0.65,0.289-2.49,0.505-4.981,0.578c-2.166,0.036-4.114,0.072-4.258,0.108
		c-0.181,0-0.253,3.284-0.181,7.291c0.108,7.146,0.144,7.362,1.118,9.347c1.262,2.599,3.969,5.125,6.93,6.533l2.345,1.083v2.526
		c0,2.888,0.108,2.851-3.787,0.902c-5.235-2.598-8.988-6.857-10.431-11.766c-0.47-1.588-0.578-3.826-0.578-11.044V5.805l3.718,0.144
		c3.825,0.145,8.012-0.504,9.925-1.479c0.54-0.289,1.01-0.542,1.083-0.578C70.836,3.855,70.872,4.974,70.872,6.31z M77.803,5.516
		c1.731,0.36,3.896,0.505,6.352,0.433l3.682-0.144v9.094c0,8.013-0.072,9.348-0.724,11.369c-1.407,4.62-4.906,8.625-9.671,11.08
		c-4.547,2.346-4.403,2.383-4.403-0.577v-2.49l2.671-1.336c3.283-1.624,5.954-4.367,7.038-7.254
		c0.686-1.769,0.756-2.815,0.756-8.842c0-3.79-0.107-6.857-0.251-6.857c-0.181-0.036-2.059-0.072-4.26-0.108
		c-2.488-0.072-4.331-0.289-4.944-0.578c-0.938-0.469-1.01-0.65-1.01-2.959V3.928l1.048,0.505
		C74.662,4.722,76.358,5.227,77.803,5.516z M72.93,10.894c1.516,0.757,4.654,1.298,6.786,1.19l1.805-0.072v5.956
		c0,5.703-0.038,5.991-0.976,7.759c-1.227,2.382-4.041,4.873-6.604,5.919l-1.986,0.794l-1.985-0.794
		c-2.561-1.047-5.376-3.574-6.603-5.919c-0.902-1.769-0.939-2.093-0.975-7.759v-5.956l1.805,0.072
		c2.599,0.145,6.82-0.794,7.615-1.696C71.812,10.352,72.317,10.604,72.93,10.894z"/>
	<path fill="#EE3664" d="M35.648,15.729c-1.948,0.902-3.645,2.995-4.114,5.161c-0.433,2.129-0.506,34.899-0.035,35.584
		c0.178,0.289,0.613,0.433,0.973,0.362c0.65-0.108,0.686-0.867,0.866-18.226c0.182-17.577,0.217-18.118,0.938-19.092
		c1.588-2.165,2.382-2.49,6.785-2.599c3.394-0.108,4.114-0.036,4.547,0.434c0.759,0.974,0.073,1.227-3.86,1.371
		c-3.031,0.109-3.863,0.253-4.692,0.867c-1.948,1.443-1.913,1.083-1.913,21.727v19.236l-1.516-0.867
		c-1.95-1.118-3.573-1.623-5.955-1.805c-1.443-0.143-2.093-0.396-2.635-1.01c-0.901-1.119-0.901-1.408,0.145-2.384
		c1.082-1.045,1.371-2.489,0.758-3.896c-0.649-1.589-3.429-5.124-6.063-7.686l-2.31-2.31l0.649-1.227
		c0.721-1.443,0.397-3.14-0.794-3.753c-0.361-0.216-0.758-0.938-0.866-1.732c-0.434-2.671-0.542-2.959-1.228-2.959
		c-1.154,0-9.6,6.749-12.271,9.817c-2.346,2.707-2.959,5.736-1.697,8.227c0.361,0.687,0.83,2.021,1.083,2.961
		c0.432,1.623,0.432,1.767-0.47,3.031l-0.938,1.335v16.638v16.639l9.131,0.107l9.096,0.073v-0.902v-0.902h-8.121H3.021v-9.058
		v-9.096l9.384,9.276c6.351,6.278,9.889,9.49,10.935,9.96c1.444,0.687,2.743,0.722,33.888,0.722h32.412l0.216-0.867
		c0.108-0.468,0.144-4.582,0.071-9.093c-0.108-7.473-0.179-8.41-0.865-9.926c-1.048-2.274-2.779-4.114-4.765-5.089l-1.697-0.83
		l-21.474-0.181c-18.188-0.146-21.654-0.254-22.557-0.721l-1.083-0.543l-0.108-20.174c-0.07-18.407-0.035-20.247,0.505-20.86
		c0.543-0.542,1.191-0.65,4.368-0.65c3.501,0,3.825-0.072,4.619-0.902c1.191-1.155,1.227-2.996,0.073-4.078
		c-0.759-0.722-1.229-0.794-5.341-0.794C38.03,15.043,36.839,15.188,35.648,15.729z M14.715,35.183
		c0.145,0.975,0.469,1.516,1.119,1.877c0.505,0.252,0.902,0.649,0.902,0.866c0,0.216-1.407,1.805-3.103,3.465
		c-5.198,5.124-6.1,6.855-4.584,9.022c0.433,0.613,0.65,1.587,0.65,2.958c0,2.059-0.036,2.094-1.01,2.094
		c-2.311,0-3.862-1.552-4.368-4.438c-0.144-0.759-0.577-1.913-0.974-2.527c-1.408-2.381-0.687-4.618,2.49-7.722
		c1.877-1.841,8.048-6.93,8.409-6.966C14.39,33.811,14.571,34.425,14.715,35.183z M19.227,45.18
		c1.588,1.658,2.923,3.174,2.923,3.354c0,0.541-1.299,1.551-2.381,1.84c-1.155,0.289-1.66,1.697-0.758,2.059
		c0.613,0.216,2.995-0.687,3.897-1.516c0.505-0.47,0.649-0.47,1.046,0.035c0.758,0.938,0.073,2.094-2.309,3.862
		c-2.563,1.949-3.212,2.058-5.088,0.975c-1.01-0.614-1.588-0.723-2.852-0.541c-1.407,0.216-1.624,0.181-1.841-0.506
		c-0.144-0.434-0.144-1.552,0-2.49c0.217-1.552,0.145-1.84-0.685-2.742c-0.505-0.543-0.939-1.156-0.939-1.372
		c0-0.397,5.414-6.026,5.775-6.026C16.159,42.112,17.603,43.483,19.227,45.18z M5.512,56.619c1.083,0.686,1.805,0.832,4.294,0.832
		h2.996l2.526,2.093c1.48,1.263,2.491,2.418,2.491,2.815c0,0.975-0.434,0.864-1.841-0.613c-1.66-1.734-2.418-2.094-3.068-1.553
		c-0.289,0.216-0.505,0.542-0.505,0.721c0,0.146,4.006,3.971,8.878,8.447l8.877,8.12h28.838h28.838v5.233v5.232h-30.75
		c-20.86,0-31.22-0.144-32.194-0.396c-1.118-0.325-3.284-2.237-11.151-9.998c-5.486-5.449-9.961-10.142-10.213-10.79
		c-0.614-1.407-0.686-9.169-0.145-10.252C3.852,55.646,3.924,55.646,5.512,56.619z M31.387,60.878
		c0.867,0.362,2.383,1.3,3.466,2.094c3.466,2.599,1.589,2.418,25.372,2.599c21.512,0.181,21.655,0.181,23.171,0.976
		c2.706,1.478,4.44,4.33,4.44,7.469v1.3H69.826h-18.01l-0.252-1.372c-0.288-1.696-1.407-3.32-2.995-4.438
		c-1.227-0.83-1.624-0.867-7.435-0.976l-6.173-0.107l-4.041-4.042c-2.239-2.201-4.079-4.187-4.079-4.368
		C26.841,59.58,29.621,60.084,31.387,60.878z M26.047,62.432l1.516,1.515l-2.165,2.164l-2.165,2.132l-0.975-0.724
		c-1.298-0.973-2.634-2.923-2.634-3.898c0-1.011,0.938-2.345,1.949-2.742C22.908,60.3,24.424,60.806,26.047,62.432z M31.534,67.916
		l2.31,2.348h5.775c5.017,0,5.954,0.108,7.253,0.722c1.516,0.756,2.707,2.274,2.707,3.573c0,0.757-0.107,0.757-9.42,0.757h-9.385
		l-3.03-2.779l-3.032-2.815l2.022-2.056c1.154-1.156,2.165-2.094,2.272-2.094C29.115,65.571,30.269,66.617,31.534,67.916z"/>
	<path fill="#EE3664" d="M45.681,22.948c-0.217,0.108-0.433,1.444-0.506,2.923l-0.107,2.707l-2.526,0.181l-2.525,0.18v9.131v9.166
		l1.01,0.865c1.011,0.866,1.191,0.866,6.135,0.795l5.125-0.108l0.108-9.202c0.107-10.792,0.181-10.539-3.069-10.827l-2.091-0.181
		l-0.108-2.779C47.018,23.092,46.656,22.334,45.681,22.948z M50.3,32.006c0,1.264-0.108,1.444-0.864,1.444
		c-0.471,0-1.049,0.216-1.265,0.505c-0.65,0.793-0.073,1.66,1.083,1.66c0.902,0,1.046,0.145,1.046,1.046
		c0,1.047-0.073,1.083-1.877,1.191c-1.768,0.108-1.913,0.181-1.913,1.01c0,0.83,0.146,0.902,1.913,1.011
		c1.804,0.108,1.877,0.145,1.877,1.19c0,0.867-0.144,1.047-0.864,1.047c-1.191,0-1.915,0.902-1.3,1.625
		c0.251,0.289,0.829,0.542,1.3,0.542c0.756,0,0.864,0.18,0.864,1.443v1.441h-3.717c-2.418,0-3.861-0.144-4.15-0.433
		c-0.326-0.324-0.435-2.669-0.435-8.299v-7.868h4.152H50.3V32.006z"/>
</g>
</svg>
