<?xml version="1.0" encoding="utf-8"?>
<!-- Generator: Adobe Illustrator 15.0.0, SVG Export Plug-In . SVG Version: 6.00 Build 0)  -->
<!DOCTYPE svg PUBLIC "-//W3C//DTD SVG 1.1//EN" "http://www.w3.org/Graphics/SVG/1.1/DTD/svg11.dtd">
<svg version="1.1" id="Layer_1" xmlns="http://www.w3.org/2000/svg" xmlns:xlink="http://www.w3.org/1999/xlink" x="0px" y="0px"
	 width="90.187px" height="89.953px" viewBox="0 0 90.187 89.953" enable-background="new 0 0 90.187 89.953" xml:space="preserve">
<path fill="#EE3664" d="M35.632,1.291c-0.549,0.31-0.618,0.928-0.618,4.705c0,2.405,0.138,4.569,0.309,4.809
	c0.138,0.275,0.653,0.413,1.1,0.344c0.791-0.103,0.825-0.206,0.996-3.881l0.172-3.778l9.548-0.104l9.515-0.068v20.779v20.779h-9.618
	h-9.616l-0.069-14.528l-0.102-14.494l-0.825-0.103c-0.446-0.068-0.962,0.069-1.1,0.343c-0.171,0.241-0.309,1.958-0.309,3.778v3.366
	h-1.202H32.61v-3.366c0-1.82-0.171-3.572-0.344-3.846c-0.24-0.378-1.133-0.55-3.262-0.653l-2.92-0.104v-4.086
	c0-3.744-0.069-4.087-0.721-4.431c-1.374-0.756-1.683,0.034-1.683,4.499v4.087H21.07c-3.881,0-3.915,0.034-3.915,4.293v3.606h-2.232
	c-1.82,0-2.267,0.103-2.576,0.653c-0.206,0.412-0.343,3.984-0.343,9.205v8.552l-4.706,1.992c-6.869,2.884-6.285,2.232-6.285,6.869
	c0,4.086,0.275,4.876,1.615,4.602c0.549-0.103,0.652-0.584,0.79-3.675l0.172-3.572l3.95-1.683c2.164-0.927,4.98-2.129,6.285-2.679
	l2.302-0.997v3.917v3.949h-2.302c-2.713,0-3.297,0.274-3.125,1.408c0.103,0.789,0.24,0.824,2.781,0.927l2.645,0.104v1.511v1.546
	h-2.302c-2.713,0-3.297,0.274-3.125,1.408c0.103,0.79,0.24,0.824,2.781,0.927l2.645,0.104v1.683v1.718h-2.164
	c-1.237,0-2.335,0.171-2.576,0.412c-0.309,0.309-0.412,3.538-0.412,12.364v11.986l-3.675-0.104l-3.709-0.102L3.485,72.969
	c-0.069-13.017-0.103-13.291-0.79-13.497c-1.649-0.55-1.684-0.377-1.684,14.459c0,12.124,0.069,13.91,0.55,14.356
	c0.481,0.48,4.877,0.55,43.413,0.55s42.931-0.069,43.412-0.55c0.48-0.48,0.55-2.336,0.55-15.421c0-8.175-0.103-15.112-0.206-15.421
	c-0.104-0.31-0.516-0.55-0.859-0.55c-0.618,0-0.652-0.344-0.652-6.972c0-4.98-0.103-7.075-0.412-7.385
	c-0.274-0.274-1.718-0.412-4.294-0.412h-3.88v-4.911c0-3.366-0.139-5.049-0.413-5.324s-1.579-0.412-3.537-0.412h-3.16l-2.335-3.366
	c-1.271-1.82-2.576-3.537-2.85-3.778c-0.344-0.24-1.685-0.412-3.745-0.412h-3.16l-0.103-11.128
	c-0.068-6.113-0.24-11.266-0.377-11.437C58.507,0.947,36.354,0.844,35.632,1.291z M30.137,20.558l-0.103,2.508l-5.222,0.103
	l-5.254,0.103v-2.609v-2.576h5.323h5.357L30.137,20.558z M35.014,35.225v9.581l-2.919,0.104c-2.13,0.104-3.021,0.275-3.263,0.652
	c-0.172,0.274-0.344,1.957-0.344,3.675v3.195h-0.996c-0.584,0-1.065,0.205-1.202,0.549c-0.103,0.309-0.206,2.369-0.206,4.636v4.122
	l-3.675-0.104L18.7,61.533l-0.102-10.681c-0.104-12.125-0.069-11.953-2.439-11.026c-0.721,0.31-1.407,0.447-1.545,0.343
	c-0.103-0.137-0.206-3.435-0.206-7.384v-7.144h10.305h10.303V35.225z M66.646,28.733c0.895,1.236,1.649,2.335,1.649,2.472
	c0.034,0.172-1.957,0.275-4.431,0.275h-4.466v-2.576v-2.61l2.817,0.103l2.816,0.104L66.646,28.733z M76.16,45.288l-0.103,11.438
	h-2.92h-2.919l-0.103-1.992c-0.104-1.752-0.207-2.027-0.962-2.301c-0.791-0.311-0.824-0.447-0.824-3.573
	c0-2.885-0.069-3.331-0.653-3.641c-0.378-0.171-2.369-0.343-4.464-0.343h-3.813V39.38v-5.495h8.415h8.415L76.16,45.288z
	 M84.815,50.713v6.183h-3.091h-3.091v-6.183v-6.182h3.091h3.091V50.713z M65.925,49.855v2.577l-17.414-0.07l-17.447-0.103
	l-0.102-2.026C30.893,49.134,30.927,48,31.03,47.76c0.138-0.412,3.229-0.481,17.551-0.481h17.345V49.855z M67.642,68.126
	c0,7.35,0.138,13.532,0.311,13.772c0.136,0.275,0.651,0.413,1.099,0.344c0.652-0.068,0.857-0.344,0.926-1.236l0.104-1.099h8.243
	h8.243l-0.104,3.159l-0.103,3.195l-11.918,0.102l-11.952,0.069V73.417c0-11.402-0.069-13.12-0.55-13.566
	c-0.755-0.755-5.357-0.755-6.113,0c-0.48,0.446-0.55,2.164-0.55,13.566v13.051l-1.786-0.104l-1.82-0.102L51.57,73.073
	c-0.069-10.064-0.173-13.291-0.516-13.498c-0.722-0.479-5.599-0.309-6.045,0.172c-0.241,0.344-0.412,4.568-0.447,13.498
	l-0.103,13.018h-1.718h-1.717l-0.103-13.018c-0.035-8.93-0.206-13.154-0.447-13.498c-0.274-0.309-1.237-0.446-3.057-0.446
	s-2.782,0.138-3.057,0.446c-0.241,0.344-0.412,4.568-0.447,13.498l-0.103,13.018h-2.575h-2.576l-0.103-15.731l-0.069-15.696h19.577
	h19.576V68.126z M86.533,68.23v8.93H78.29h-8.243v-8.93V59.3h8.243h8.243V68.23z M38.449,74.103v12.364l-0.928-0.104l-0.961-0.102
	l-0.103-12.297l-0.069-12.261h1.03h1.03V74.103z M49.096,74.103v12.364l-0.929-0.104l-0.96-0.102l-0.104-12.297l-0.069-12.261h1.031
	h1.03V74.103z M59.915,74.069v12.193h-1.03h-1.029l-0.104-11.85c-0.035-6.526,0-12.056,0.104-12.296
	c0.102-0.275,0.549-0.412,1.099-0.344l0.961,0.103V74.069z M26.084,75.271v11.162l-6.25-0.069l-6.286-0.102l-0.103-11.095
	l-0.068-11.059h6.354h6.354V75.271z"/>
<path fill="#EE3664" d="M17.876,29.557c-0.275,0.309-0.378,1.786-0.309,4.361l0.104,3.916l7.006,0.103
	c5.393,0.069,7.075-0.034,7.316-0.343c0.137-0.24,0.273-2.095,0.273-4.122c0-3.297-0.069-3.709-0.652-4.052
	c-0.412-0.206-3.297-0.344-7.006-0.344C19.593,29.076,18.186,29.179,17.876,29.557z M29.793,33.61l0.103,1.992h-5.014h-4.98v-2.061
	v-2.095l4.911,0.103l4.878,0.103L29.793,33.61z"/>
<path fill="#EE3664" d="M73.344,65.001c-0.276,0.721-0.276,0.688,0.343,1.306c0.791,0.789,8.415,0.789,9.205,0
	c0.619-0.618,0.619-0.585,0.343-1.306c-0.171-0.48-0.961-0.549-4.945-0.549S73.515,64.521,73.344,65.001z"/>
<path fill="#EE3664" d="M73.653,70.497c-0.309,0.309-0.481,0.79-0.378,1.064c0.104,0.275,0.206,0.585,0.206,0.653
	s2.164,0.137,4.774,0.137c4.019,0,4.809-0.068,4.979-0.549c0.276-0.722,0.276-0.687-0.343-1.306
	C82.102,69.672,74.478,69.707,73.653,70.497z"/>
<path fill="#EE3664" d="M41.781,8.709c-0.139,0.104-0.241,0.584-0.241,0.997c0,1.099,0.653,1.202,6.148,1.099
	c3.778-0.068,4.671-0.206,4.945-0.652c0.206-0.31,0.24-0.825,0.139-1.134c-0.207-0.481-0.929-0.55-5.496-0.55
	C44.357,8.469,41.884,8.572,41.781,8.709z"/>
<path fill="#EE3664" d="M42.158,15.716c-0.927,0.516-0.755,1.649,0.275,2.027c0.48,0.206,2.61,0.343,4.774,0.343
	c2.162,0,4.293-0.137,4.774-0.343c1.063-0.378,1.202-1.546,0.239-2.061C51.363,15.235,42.948,15.235,42.158,15.716z"/>
<path fill="#EE3664" d="M41.952,22.86c-0.274,0.137-0.412,0.652-0.343,1.099c0.103,0.824,0.103,0.824,5.495,0.927
	c5.186,0.069,5.392,0.069,5.599-0.618c0.481-1.477-0.241-1.717-5.461-1.717C44.597,22.551,42.193,22.688,41.952,22.86z"/>
<path fill="#EE3664" d="M41.677,30.244c-0.104,0.274-0.138,0.79-0.068,1.133c0.103,0.549,0.584,0.618,5.392,0.618
	c4.569,0,5.324-0.069,5.633-0.584c0.274-0.411,0.24-0.721-0.068-1.099C51.913,29.522,41.952,29.488,41.677,30.244z"/>
<path fill="#EE3664" d="M41.677,37.457c-0.104,0.274-0.138,0.79-0.068,1.133c0.103,0.55,0.618,0.619,5.289,0.722
	c5.563,0.103,6.286-0.103,5.805-1.648c-0.207-0.652-0.481-0.687-5.53-0.687C42.879,36.976,41.815,37.078,41.677,37.457z"/>
</svg>
