<?xml version="1.0" encoding="utf-8"?>
<!-- Generator: Adobe Illustrator 15.0.0, SVG Export Plug-In . SVG Version: 6.00 Build 0)  -->
<!DOCTYPE svg PUBLIC "-//W3C//DTD SVG 1.1//EN" "http://www.w3.org/Graphics/SVG/1.1/DTD/svg11.dtd">
<svg version="1.1" id="Layer_1" xmlns="http://www.w3.org/2000/svg" xmlns:xlink="http://www.w3.org/1999/xlink" x="0px" y="0px"
	 width="68.692px" height="89.953px" viewBox="0 0 68.692 89.953" enable-background="new 0 0 68.692 89.953" xml:space="preserve">
<path fill="#EE3664" d="M1.631,1.637C1.079,2.19,1,6.691,1,45.22C1,83.749,1.079,88.25,1.631,88.802
	c0.554,0.552,3.041,0.631,21.476,0.631c18.436,0,20.922-0.079,21.475-0.631c0.791-0.751,0.791-1.145,0-1.895
	c-0.553-0.554-2.959-0.632-20.527-0.632H4.158V45.22V4.165h21.318h21.316v6.474c0,5.368,0.119,6.592,0.631,7.105
	c0.514,0.514,1.738,0.632,7.107,0.632h6.473v9.632c0,8.25,0.08,9.75,0.633,10.264c0.316,0.354,0.75,0.631,0.947,0.631
	s0.631-0.276,0.947-0.631c0.553-0.514,0.631-2.092,0.631-11.331V16.243l-7.619-7.618l-7.617-7.619H25.593
	C4.908,1.006,2.185,1.085,1.631,1.637z M54.492,10.875l4.342,4.342h-4.461h-4.422v-4.342c0-2.409,0.039-4.343,0.117-4.343
	C50.109,6.533,52.123,8.467,54.492,10.875z"/>
<path fill="#EE3664" d="M28.474,14.27c-0.432,0.435-0.631,1.382-0.631,3.158v2.527h-2.527c-3.511,0-3.789,0.355-3.789,4.738
	c0,4.382,0.277,4.737,3.789,4.737h2.527v2.526c0,3.513,0.355,3.789,4.738,3.789c4.381,0,4.736-0.276,4.736-3.789V29.43h2.527
	c3.512,0,3.789-0.355,3.789-4.737c0-4.382-0.277-4.738-3.789-4.738h-2.527v-2.527c0-3.513-0.355-3.789-4.736-3.789
	C29.935,13.639,28.949,13.797,28.474,14.27z M34.16,19.323c0,1.777,0.197,2.724,0.633,3.159c0.434,0.434,1.381,0.631,3.156,0.631
	h2.527v1.58v1.579h-2.527c-3.355,0-3.789,0.434-3.789,3.79v2.527h-1.578h-1.58v-2.527c0-3.355-0.434-3.79-3.789-3.79h-2.525v-1.579
	v-1.58h2.525c1.777,0,2.723-0.197,3.158-0.631c0.434-0.435,0.631-1.382,0.631-3.159v-2.526h1.58h1.578V19.323z"/>
<path fill="#EE3664" d="M11.106,42.694c-0.356,0.315-0.632,0.75-0.632,0.947c0,0.198,0.276,0.632,0.632,0.948
	c0.513,0.552,2.171,0.632,12,0.632c9.831,0,11.487-0.08,12.002-0.632c0.354-0.316,0.631-0.75,0.631-0.948
	c0-0.197-0.277-0.631-0.631-0.947c-0.516-0.553-2.172-0.632-12.002-0.632C13.277,42.062,11.619,42.141,11.106,42.694z"/>
<path fill="#EE3664" d="M45.845,42.694c-0.473,0.472-0.631,1.459-0.631,4.105c0,3.829,0.434,4.736,2.209,4.736h0.947v15.278
	c0,9.474,0.16,15.87,0.436,16.816c0.75,2.724,3.355,5.054,6.316,5.605c3.355,0.633,7.658-2.131,8.605-5.526
	c0.277-1.025,0.434-6.909,0.434-16.896V51.536h0.949c1.775,0,2.209-0.907,2.209-4.736c0-2.646-0.158-3.633-0.631-4.105
	c-0.514-0.553-2.014-0.632-10.422-0.632S46.359,42.141,45.845,42.694z M61.003,67.129c0,17.133-0.037,17.33-2.367,18.554
	c-3.395,1.738-7.107-0.514-7.107-4.343v-1.381h2.527c3.947,0,3.791,0.434,3.791-11.054c0-11.486,0.156-11.053-3.791-11.053h-2.527
	v-3.159v-3.158h4.738h4.736V67.129z M54.687,68.906V76.8h-1.578h-1.58v-7.895v-7.895h1.58h1.578V68.906z"/>
<path fill="#EE3664" d="M11.106,49.009c-0.356,0.316-0.632,0.751-0.632,0.948s0.276,0.63,0.632,0.948
	c0.473,0.512,1.54,0.63,4.896,0.63s4.421-0.118,4.895-0.63c0.355-0.318,0.631-0.751,0.631-0.948s-0.276-0.632-0.631-0.948
	c-0.474-0.513-1.539-0.632-4.895-0.632S11.579,48.497,11.106,49.009z"/>
<path fill="#EE3664" d="M25.316,49.009c-0.354,0.316-0.629,0.751-0.629,0.948s0.275,0.63,0.629,0.948
	c0.516,0.512,1.818,0.63,8.055,0.63c6.238,0,7.539-0.118,8.053-0.63c0.355-0.318,0.633-0.751,0.633-0.948s-0.277-0.632-0.633-0.948
	c-0.514-0.513-1.814-0.632-8.053-0.632C27.134,48.377,25.832,48.497,25.316,49.009z"/>
<path fill="#EE3664" d="M11.106,55.326c-0.356,0.316-0.632,0.75-0.632,0.947c0,0.198,0.276,0.632,0.632,0.948
	c0.513,0.552,2.092,0.632,11.211,0.632c9.12,0,10.698-0.08,11.211-0.632c0.355-0.316,0.631-0.75,0.631-0.948
	c0-0.197-0.275-0.631-0.631-0.947c-0.514-0.553-2.092-0.632-11.211-0.632C13.198,54.694,11.619,54.773,11.106,55.326z"/>
<path fill="#EE3664" d="M11.106,61.641c-0.356,0.317-0.632,0.751-0.632,0.948s0.276,0.632,0.632,0.948
	c0.908,0.907,12.04,0.907,12.948,0c0.355-0.316,0.633-0.751,0.633-0.948s-0.277-0.631-0.633-0.948
	C23.146,60.734,12.014,60.734,11.106,61.641z"/>
<path fill="#EE3664" d="M28.474,61.641c-0.354,0.317-0.631,0.751-0.631,0.948s0.277,0.632,0.631,0.948
	c0.516,0.512,1.818,0.631,8.055,0.631s7.539-0.119,8.053-0.631c0.355-0.316,0.633-0.751,0.633-0.948s-0.277-0.631-0.633-0.948
	c-0.514-0.513-1.816-0.63-8.053-0.63S28.99,61.128,28.474,61.641z"/>
<path fill="#EE3664" d="M11.106,67.959c-0.356,0.315-0.632,0.749-0.632,0.946s0.276,0.632,0.632,0.948
	c0.513,0.552,2.25,0.631,12.79,0.631c10.541,0,12.277-0.079,12.791-0.631c0.355-0.316,0.631-0.751,0.631-0.948
	s-0.275-0.631-0.631-0.946c-0.514-0.555-2.25-0.633-12.791-0.633C13.356,67.327,11.619,67.405,11.106,67.959z"/>
<path fill="#EE3664" d="M11.106,74.275c-0.356,0.315-0.632,0.75-0.632,0.947s0.276,0.632,0.632,0.948
	c0.513,0.551,2.526,0.63,15.948,0.63s15.436-0.079,15.949-0.63c0.354-0.316,0.631-0.751,0.631-0.948s-0.277-0.632-0.631-0.947
	c-0.514-0.553-2.527-0.632-15.949-0.632S11.619,73.722,11.106,74.275z"/>
</svg>
