<?xml version="1.0" encoding="utf-8"?>
<!-- Generator: Adobe Illustrator 15.0.0, SVG Export Plug-In . SVG Version: 6.00 Build 0)  -->
<!DOCTYPE svg PUBLIC "-//W3C//DTD SVG 1.1//EN" "http://www.w3.org/Graphics/SVG/1.1/DTD/svg11.dtd">
<svg version="1.1" id="Layer_1" xmlns="http://www.w3.org/2000/svg" xmlns:xlink="http://www.w3.org/1999/xlink" x="0px" y="0px"
	 width="45.093px" height="89.953px" viewBox="0 0 45.093 89.953" enable-background="new 0 0 45.093 89.953" xml:space="preserve">
<path fill="#EE3664" d="M3.246,1.549C1.544,2.264,1.204,3.115,1.204,6.926c0,2.926,0.102,3.675,0.544,3.947
	c0.306,0.205,0.817,0.239,1.123,0.136c0.442-0.17,0.544-0.783,0.544-3.403c0-2.008,0.136-3.3,0.409-3.573
	c0.646-0.646,36.787-0.578,37.331,0.068c0.272,0.306,0.341,7.112,0.307,24.911l-0.102,24.469H22.473H3.586L3.484,34.355
	c-0.068-18.479-0.103-19.159-0.715-19.5c-0.51-0.239-0.817-0.204-1.225,0.204c-0.477,0.477-0.511,2.552-0.442,19.942l0.102,19.397
	l0.953,0.817c0.919,0.782,1.157,0.816,6.16,0.816h5.241l0.204,2.45c0.103,1.361,0.443,6.159,0.715,10.651
	c0.272,4.492,0.579,8.746,0.646,9.427l0.136,1.293h-3.607c-5.377,0-7.045,1.089-7.453,4.833c-0.17,1.735-0.102,2.008,0.681,2.79
	l0.885,0.885h16.709h16.71l0.885-0.885c0.782-0.782,0.851-1.055,0.68-2.722c-0.238-2.179-1.225-3.778-2.824-4.425
	c-0.715-0.306-2.45-0.477-4.73-0.477c-3.539,0-3.573,0-3.403-0.782c0.068-0.408,0.205-2.654,0.238-5.003
	c0.103-4.083,0.068-4.254-0.612-4.355c-1.157-0.171-1.429,0.612-1.667,4.696c-0.341,6.057,0.271,5.444-5.275,5.444
	c-4.662,0-4.764,0-4.9-0.782c-0.102-0.408-0.408-4.9-0.714-9.938c-0.306-5.07-0.613-10.072-0.749-11.162l-0.204-1.939h6.534h6.534
	l-0.204,2.79c-0.102,1.565-0.272,3.607-0.374,4.561c-0.204,2.042,0.442,3.097,1.565,2.519c0.681-0.374,0.816-1.157,1.225-6.908
	l0.204-2.961h5.207c5.036,0,5.274-0.034,6.193-0.816l0.953-0.817V28.842V3.285L42.79,2.366l-0.919-0.953L22.882,1.345
	C12.468,1.311,3.62,1.413,3.246,1.549z M37.447,82.849c0.477,0.375,0.749,1.021,0.783,1.77l0.067,1.191H22.473H6.649l0.068-1.191
	c0.034-0.749,0.306-1.395,0.783-1.77c0.68-0.578,1.872-0.612,14.973-0.612C35.576,82.237,36.766,82.271,37.447,82.849z"/>
<path fill="#EE3664" d="M7.568,6.688C7.16,6.858,6.649,7.403,6.479,7.913c-0.238,0.578-0.306,8.235-0.272,21.473
	c0.102,19.908,0.136,20.589,0.749,21.065c0.987,0.715,30.049,0.715,31.037,0c0.612-0.477,0.646-1.089,0.646-21.609
	c0-19.806-0.034-21.133-0.612-21.712c-0.545-0.578-1.702-0.612-15.144-0.68C14.578,6.416,8.01,6.518,7.568,6.688z M36.358,28.706
	l0.068,19.84H22.473H8.521v-19.67c0-10.822,0.102-19.806,0.238-19.908c0.136-0.136,6.364-0.204,13.851-0.17L36.256,8.9
	L36.358,28.706z"/>
<path fill="#EE3664" d="M12.332,12.881c-0.579,0.579-0.579,7.793,0,8.372c0.272,0.272,1.702,0.409,4.186,0.409
	c2.484,0,3.914-0.136,4.186-0.409c0.579-0.578,0.579-7.793,0-8.372C20.125,12.303,12.911,12.303,12.332,12.881z M18.73,17.067v2.212
	h-2.212h-2.212v-2.212v-2.212h2.212h2.212V17.067z"/>
<path fill="#EE3664" d="M24.243,12.881c-0.578,0.579-0.578,7.793,0,8.372c0.272,0.272,1.702,0.409,4.187,0.409
	c2.483,0,3.913-0.136,4.186-0.409c0.578-0.578,0.578-7.793,0-8.372C32.037,12.303,24.822,12.303,24.243,12.881z M30.641,17.067
	v2.212h-2.212h-2.213v-2.212v-2.212h2.213h2.212V17.067z"/>
<path fill="#EE3664" d="M12.332,24.452c-0.579,0.579-0.579,7.793,0,8.371c0.272,0.272,1.702,0.409,4.186,0.409
	c2.484,0,3.914-0.137,4.186-0.409c0.579-0.578,0.579-7.792,0-8.371C20.125,23.874,12.911,23.874,12.332,24.452z M18.73,28.638v2.212
	h-2.212h-2.212v-2.212v-2.212h2.212h2.212V28.638z"/>
<path fill="#EE3664" d="M18.952,35.471c-0.579,0.579-0.579,7.793,0,8.371c0.272,0.272,1.702,0.409,4.186,0.409
	c2.484,0,3.914-0.137,4.186-0.409c0.578-0.578,0.578-7.792,0-8.371S19.53,34.893,18.952,35.471z M25.349,39.657v2.212h-2.211h-2.212
	v-2.212v-2.212h2.212h2.211V39.657z"/>
<path fill="#EE3664" d="M24.243,24.452c-0.578,0.579-0.578,7.793,0,8.371c0.272,0.272,1.702,0.409,4.187,0.409
	c2.483,0,3.913-0.137,4.186-0.409c0.578-0.578,0.578-7.792,0-8.371S24.822,23.874,24.243,24.452z M30.641,28.638v2.212h-2.212
	h-2.213v-2.212v-2.212h2.213h2.212V28.638z"/>
</svg>
